<svg width="25" height="24" viewBox="0 0 25 24" fill="none" xmlns="http://www.w3.org/2000/svg">
<path d="M12.5 24C19.1274 24 24.5 18.6274 24.5 12C24.5 5.37258 19.1274 0 12.5 0C5.87258 0 0.5 5.37258 0.5 12C0.5 18.6274 5.87258 24 12.5 24Z" fill="white"/>
<path fill-rule="evenodd" clip-rule="evenodd" d="M12.0471 17.263H12.989C12.989 17.263 13.2735 17.2317 13.4187 17.0752C13.5524 16.9314 13.5482 16.6615 13.5482 16.6615C13.5482 16.6615 13.5298 15.3977 14.1163 15.2116C14.6945 15.0282 15.437 16.433 16.224 16.9731C16.8191 17.3819 17.2713 17.2923 17.2713 17.2923L19.3755 17.263C19.3755 17.263 20.4763 17.1952 19.9544 16.3297C19.9116 16.2589 19.6504 15.6894 18.3898 14.5193C17.0704 13.2947 17.2471 13.4928 18.8365 11.3744C19.8044 10.0843 20.1914 9.2967 20.0705 8.95936C19.9552 8.63807 19.2433 8.72299 19.2433 8.72299L16.8741 8.73775C16.8741 8.73775 16.6984 8.71379 16.5682 8.79166C16.4409 8.86802 16.359 9.046 16.359 9.046C16.359 9.046 15.984 10.0443 15.4838 10.8933C14.4288 12.6848 14.007 12.7794 13.8346 12.6682C13.4335 12.4089 13.5336 11.6266 13.5336 11.0709C13.5336 9.33478 13.7969 8.6109 13.0209 8.42352C12.7633 8.36127 12.5738 8.3202 11.9152 8.31357C11.0698 8.3048 10.3542 8.31613 9.9491 8.51464C9.67957 8.64663 9.47165 8.94075 9.59829 8.95765C9.75487 8.97862 10.1095 9.05327 10.2976 9.30932C10.5404 9.6396 10.5318 10.3814 10.5318 10.3814C10.5318 10.3814 10.6713 12.4252 10.206 12.6791C9.88664 12.8532 9.44855 12.4977 8.50798 10.8724C8.02604 10.0398 7.66217 9.11958 7.66217 9.11958C7.66217 9.11958 7.59201 8.9476 7.46687 8.85562C7.315 8.74417 7.1028 8.70866 7.1028 8.70866L4.85138 8.72342C4.85138 8.72342 4.5134 8.73283 4.38933 8.87979C4.27895 9.01049 4.38056 9.28087 4.38056 9.28087C4.38056 9.28087 6.14319 13.4047 8.13898 15.4828C9.96899 17.3881 12.0471 17.263 12.0471 17.263Z" fill="#9480FF"/>
</svg>
