<svg width="24" height="24" viewBox="0 0 24 24" fill="none" xmlns="http://www.w3.org/2000/svg">
<path d="M12.003 0H11.997C5.3805 0 0 5.382 0 12C0 14.625 0.846 17.058 2.2845 19.0335L0.789 23.4915L5.4015 22.017C7.299 23.274 9.5625 24 12.003 24C18.6195 24 24 18.6165 24 12C24 5.3835 18.6195 0 12.003 0Z" fill="white"/>
<path d="M18.9853 16.9458C18.6958 17.7633 17.5468 18.4413 16.6303 18.6393C16.0033 18.7728 15.1843 18.8793 12.4273 17.7363C8.90083 16.2753 6.62983 12.6918 6.45283 12.4593C6.28333 12.2268 5.02783 10.5618 5.02783 8.83977C5.02783 7.11777 5.90233 6.27927 6.25483 5.91927C6.54433 5.62377 7.02283 5.48877 7.48183 5.48877C7.63033 5.48877 7.76383 5.49627 7.88383 5.50227C8.23633 5.51727 8.41333 5.53827 8.64583 6.09477C8.93533 6.79227 9.64033 8.51427 9.72433 8.69127C9.80983 8.86827 9.89533 9.10827 9.77533 9.34077C9.66283 9.58077 9.56383 9.68727 9.38683 9.89127C9.20983 10.0953 9.04183 10.2513 8.86483 10.4703C8.70283 10.6608 8.51983 10.8648 8.72383 11.2173C8.92783 11.5623 9.63283 12.7128 10.6708 13.6368C12.0103 14.8293 13.0963 15.2103 13.4848 15.3723C13.7743 15.4923 14.1193 15.4638 14.3308 15.2388C14.5993 14.9493 14.9308 14.4693 15.2683 13.9968C15.5083 13.6578 15.8113 13.6158 16.1293 13.7358C16.4533 13.8483 18.1678 14.6958 18.5203 14.8713C18.8728 15.0483 19.1053 15.1323 19.1908 15.2808C19.2748 15.4293 19.2748 16.1268 18.9853 16.9458Z" fill="#9480FF"/>
</svg>
