<svg width="25" height="24" viewBox="0 0 25 24" fill="none" xmlns="http://www.w3.org/2000/svg">
<g clip-path="url(#clip0_1897_7300)">
<path d="M12.5 24C19.1274 24 24.5 18.6274 24.5 12C24.5 5.37258 19.1274 0 12.5 0C5.87258 0 0.5 5.37258 0.5 12C0.5 18.6274 5.87258 24 12.5 24Z" fill="black"/>
<path fill-rule="evenodd" clip-rule="evenodd" d="M12.0467 17.263H12.9885C12.9885 17.263 13.273 17.2317 13.4183 17.0752C13.5519 16.9314 13.5477 16.6615 13.5477 16.6615C13.5477 16.6615 13.5293 15.3977 14.1158 15.2116C14.694 15.0282 15.4365 16.433 16.2235 16.9731C16.8186 17.3819 17.2708 17.2923 17.2708 17.2923L19.375 17.263C19.375 17.263 20.4758 17.1952 19.9539 16.3297C19.9111 16.2589 19.6499 15.6894 18.3893 14.5193C17.0699 13.2947 17.2466 13.4928 18.836 11.3744C19.8039 10.0843 20.1909 9.2967 20.07 8.95936C19.9547 8.63807 19.2428 8.72299 19.2428 8.72299L16.8736 8.73775C16.8736 8.73775 16.6979 8.71379 16.5677 8.79166C16.4404 8.86802 16.3585 9.046 16.3585 9.046C16.3585 9.046 15.9835 10.0443 15.4834 10.8933C14.4283 12.6848 14.0065 12.7794 13.8341 12.6682C13.433 12.4089 13.5331 11.6266 13.5331 11.0709C13.5331 9.33478 13.7964 8.6109 13.0204 8.42352C12.7628 8.36127 12.5733 8.3202 11.9147 8.31357C11.0693 8.3048 10.3538 8.31613 9.94861 8.51464C9.67908 8.64663 9.47116 8.94075 9.5978 8.95765C9.75438 8.97862 10.109 9.05327 10.2971 9.30932C10.5399 9.6396 10.5313 10.3814 10.5313 10.3814C10.5313 10.3814 10.6708 12.4252 10.2055 12.6791C9.88615 12.8532 9.44806 12.4977 8.50749 10.8724C8.02555 10.0398 7.66169 9.11958 7.66169 9.11958C7.66169 9.11958 7.59152 8.9476 7.46638 8.85562C7.31451 8.74417 7.10231 8.70866 7.10231 8.70866L4.85089 8.72342C4.85089 8.72342 4.51291 8.73283 4.38884 8.87979C4.27846 9.01049 4.38007 9.28087 4.38007 9.28087C4.38007 9.28087 6.1427 13.4047 8.13849 15.4828C9.96851 17.3881 12.0467 17.263 12.0467 17.263Z" fill="white"/>
</g>
<defs>
<clipPath id="clip0_1897_7300">
<rect width="24" height="24" fill="white" transform="translate(0.5)"/>
</clipPath>
</defs>
</svg>
