<svg width="24" height="24" viewBox="0 0 24 24" fill="none" xmlns="http://www.w3.org/2000/svg">
<path d="M16.5 21C15.285 21 14.5 20.215 14.5 19V7.5L14.4535 7H7V10H7.5C8.715 10 9.5 10.785 9.5 12V19C9.5 20.215 8.715 21 7.5 21H7V24H17V21H16.5ZM16 23H8V21.966C9.495 21.7545 10.5 20.594 10.5 19V12C10.5 10.4055 9.495 9.245 8 9.034V8H13.5V19C13.5 20.594 14.5055 21.7545 16 21.966V23ZM12 6C13.654 6 15 4.6545 15 3C15 1.3455 13.654 0 12 0C10.3455 0 9 1.3455 9 3C9 4.6545 10.3455 6 12 6ZM12 1C13.103 1 14 1.8975 14 3C14 4.1025 13.103 5 12 5C10.897 5 10 4.1025 10 3C10 1.8975 10.897 1 12 1Z" fill="black"/>
</svg>
