<svg width="24" height="24" viewBox="0 0 24 24" fill="none" xmlns="http://www.w3.org/2000/svg">
<path d="M18 7.19451V4.50001C18 4.10218 17.8419 3.72065 17.5606 3.43935C17.2794 3.15804 16.8978 3.00001 16.5 3.00001H15.8025C15.5065 2.99897 15.2169 3.08599 14.9705 3.25001L13.2415 4.40001C11.6823 5.44351 9.8482 6.00041 7.972 6.00001H3.5C2.8372 6.00081 2.20178 6.26446 1.73311 6.73311C1.26444 7.20181 1.00079 7.83721 1 8.50001V12.5C1.00079 13.1628 1.26444 13.7982 1.73311 14.2669C2.20178 14.7356 2.8372 14.9992 3.5 15H4.5V19.5C4.5 19.8979 4.65804 20.2794 4.93934 20.5607C5.22065 20.842 5.6022 21 6 21H6.5C6.8978 21 7.27935 20.842 7.56065 20.5607C7.84195 20.2794 8 19.8979 8 19.5V15C9.8661 15.0035 11.6896 15.5582 13.2415 16.5945L14.97 17.7445C15.2166 17.9085 15.5063 17.9955 15.8025 17.9945H16.5C16.8978 17.9945 17.2794 17.8365 17.5606 17.5552C17.8419 17.2739 18 16.8924 18 16.4945V13.8055C18.6033 13.4895 19.1086 13.0145 19.4611 12.4318C19.8137 11.8491 20.0001 11.1811 20.0001 10.5C20.0001 9.81896 19.8137 9.15091 19.4611 8.56826C19.1086 7.98556 18.6033 7.51051 18 7.19451ZM2 12.5V8.50001C2 8.10221 2.15804 7.72066 2.43934 7.43936C2.72065 7.15806 3.10217 7.00001 3.5 7.00001H5.5V14H3.5C3.10217 14 2.72065 13.842 2.43934 13.5607C2.15804 13.2794 2 12.8979 2 12.5ZM6.5 20H6C5.8674 20 5.7402 19.9473 5.64645 19.8536C5.5527 19.7598 5.5 19.6326 5.5 19.5V15H7V19.5C7 19.6326 6.9473 19.7598 6.85355 19.8536C6.7598 19.9473 6.6326 20 6.5 20ZM17 16.5C17 16.6326 16.9473 16.7598 16.8535 16.8536C16.7598 16.9473 16.6326 17 16.5 17H15.8025C15.7039 17.0001 15.6075 16.9709 15.5255 16.916L13.7965 15.766C12.0728 14.6135 10.0456 13.9989 7.972 14H6.5V7.00001H7.972C10.0453 7.00191 12.0725 6.38816 13.7965 5.23651L15.526 4.08351C15.608 4.02908 15.7042 4.00004 15.8025 4.00001H16.5C16.6326 4.00001 16.7598 4.05269 16.8535 4.14646C16.9473 4.24022 17 4.3674 17 4.50001V16.5ZM18 12.6215V8.37851C18.3128 8.63651 18.5647 8.96051 18.7376 9.32726C18.9105 9.69406 19.0002 10.0945 19.0002 10.5C19.0002 10.9055 18.9105 11.306 18.7376 11.6728C18.5647 12.0395 18.3128 12.3635 18 12.6215Z" fill="black"/>
<path d="M23 10H21.5C21.3674 10 21.2402 10.0527 21.1465 10.1465C21.0527 10.2402 21 10.3674 21 10.5C21 10.6326 21.0527 10.7598 21.1465 10.8535C21.2402 10.9473 21.3674 11 21.5 11H23C23.1326 11 23.2598 10.9473 23.3535 10.8535C23.4473 10.7598 23.5 10.6326 23.5 10.5C23.5 10.3674 23.4473 10.2402 23.3535 10.1465C23.2598 10.0527 23.1326 10 23 10Z" fill="black"/>
<path d="M20.7998 8.37496C20.8876 8.37516 20.9738 8.35201 21.0498 8.30796L22.3498 7.55796C22.4071 7.52536 22.4574 7.48176 22.4978 7.42966C22.5382 7.37756 22.5679 7.31796 22.5852 7.25431C22.6025 7.19066 22.607 7.12426 22.5985 7.05886C22.59 6.99346 22.5686 6.93041 22.5357 6.87331C22.5027 6.81621 22.4587 6.76616 22.4064 6.72611C22.354 6.68606 22.2942 6.65676 22.2304 6.63991C22.1667 6.62306 22.1002 6.61896 22.0349 6.62791C21.9696 6.63686 21.9067 6.65861 21.8498 6.69196L20.5498 7.44196C20.4545 7.49701 20.38 7.58196 20.3379 7.68361C20.2957 7.78531 20.2883 7.89806 20.3168 8.00436C20.3453 8.11071 20.4081 8.20461 20.4954 8.27161C20.5827 8.33866 20.6897 8.37496 20.7998 8.37496Z" fill="black"/>
<path d="M22.3455 13.442L21.0455 12.692C20.9307 12.6268 20.7948 12.6096 20.6673 12.6441C20.5399 12.6787 20.4314 12.7623 20.3653 12.8767C20.2993 12.991 20.2812 13.1268 20.315 13.2545C20.3487 13.3821 20.4316 13.4912 20.5455 13.558L21.8455 14.308C21.9024 14.3414 21.9652 14.3631 22.0306 14.3721C22.0959 14.381 22.1624 14.3769 22.2261 14.3601C22.2898 14.3432 22.3496 14.3139 22.402 14.2739C22.4544 14.2338 22.4983 14.1838 22.5313 14.1267C22.5643 14.0696 22.5856 14.0065 22.5941 13.9411C22.6026 13.8757 22.5981 13.8093 22.5808 13.7457C22.5636 13.682 22.5339 13.6224 22.4935 13.5703C22.4531 13.5182 22.4028 13.4746 22.3455 13.442Z" fill="black"/>
</svg>
