<svg width="72" height="72" viewBox="0 0 72 72" fill="none" xmlns="http://www.w3.org/2000/svg">
<path d="M36 0C16.1493 0 0 16.15 0 36C0 55.85 16.1493 72 36 72C55.8507 72 72 55.85 72 36C72 16.15 55.8507 0 36 0ZM36 64.6718C20.19 64.6718 7.32824 51.81 7.32824 36C7.32824 20.19 20.19 7.32824 36 7.32824C51.81 7.32824 64.6718 20.19 64.6718 36C64.6718 51.81 51.81 64.6718 36 64.6718Z" fill="#9480FF"/>
<path d="M56.6444 24.203L52.0452 19.603C51.7213 19.2791 51.146 19.2791 50.8228 19.603L29.0711 41.3547L21.1772 33.4615C20.854 33.1376 20.2795 33.1376 19.9548 33.4615L15.3556 38.0607C15.1929 38.2234 15.1021 38.4425 15.1021 38.6719C15.1021 38.9012 15.1929 39.1211 15.3556 39.283L28.46 52.3867C28.6285 52.5545 28.8491 52.6402 29.0711 52.6402C29.2917 52.6402 29.5138 52.556 29.6823 52.3867L56.6444 25.4246C56.8071 25.2626 56.8987 25.0428 56.8987 24.8134C56.8987 24.584 56.8071 24.3649 56.6444 24.203Z" fill="#9480FF"/>
</svg>
