<svg width="20" height="21" viewBox="0 0 20 21" fill="none" xmlns="http://www.w3.org/2000/svg">
<path fill-rule="evenodd" clip-rule="evenodd" d="M1.84923 6.59475C1.60542 5.13188 2.73352 3.8002 4.21658 3.8002H15.7835C17.2665 3.8002 18.3946 5.13188 18.1508 6.59475L16.1508 18.5948C15.9579 19.752 14.9567 20.6002 13.7835 20.6002H6.21658C5.04336 20.6002 4.04211 19.752 3.84923 18.5948L1.84923 6.59475ZM15.7835 6.20019H4.21658L6.21658 18.2002L13.7835 18.2002L15.7835 6.20019Z" fill="#130F1C"/>
<path fill-rule="evenodd" clip-rule="evenodd" d="M19.6 6.20019H0.400024V3.8002H19.6V6.20019Z" fill="#130F1C"/>
<path fill-rule="evenodd" clip-rule="evenodd" d="M10 2.6002C9.68485 2.6002 9.37277 2.66227 9.08158 2.78288C8.7904 2.9035 8.52583 3.08028 8.30297 3.30314C8.15434 3.45177 8.02621 3.61894 7.92156 3.8002L12.0785 3.8002C11.9738 3.61894 11.8457 3.45177 11.6971 3.30314C11.4742 3.08028 11.2096 2.9035 10.9185 2.78288C10.6273 2.66227 10.3152 2.6002 10 2.6002ZM8.16315 0.565573C8.74551 0.324351 9.36968 0.200195 10 0.200195C10.6304 0.200195 11.2545 0.324351 11.8369 0.565574C12.4193 0.806796 12.9484 1.16036 13.3941 1.60608C13.8399 2.0518 14.1934 2.58095 14.4346 3.16332C14.6759 3.74568 14.8 4.36985 14.8 5.0002V6.2002L5.20002 6.20019V5.00019C5.20002 4.36985 5.32418 3.74568 5.5654 3.16331C5.80663 2.58095 6.16019 2.0518 6.60591 1.60608C7.05163 1.16036 7.58078 0.806796 8.16315 0.565573Z" fill="#130F1C"/>
<path fill-rule="evenodd" clip-rule="evenodd" d="M7.00002 17.0002V8.60019H9.40002V17.0002H7.00002ZM10.6 17.0002V8.60019H13V17.0002H10.6Z" fill="#130F1C"/>
</svg>
