<svg width="37" height="37" viewBox="0 0 37 37" fill="none" xmlns="http://www.w3.org/2000/svg">
<path d="M26.2453 0H10.7547C9.75503 0 8.94165 0.813383 8.94165 1.813V21.5833V22.8167V35.187C8.94165 36.1866 9.75503 37 10.7547 37H26.2453C27.2449 37 28.0583 36.1866 28.0583 35.187V22.8167V21.5833V1.813C28.0583 0.813383 27.2449 0 26.2453 0ZM26.825 35.187C26.825 35.507 26.5648 35.7667 26.2453 35.7667H10.7547C10.4346 35.7667 10.175 35.5064 10.175 35.187V22.8167H26.825V35.187ZM10.175 21.5833V1.813C10.175 1.49357 10.4352 1.23333 10.7547 1.23333H26.2453C26.5654 1.23333 26.825 1.49357 26.825 1.813V21.5833H10.175Z" fill="black"/>
<path d="M11.4084 12.95C11.0674 12.95 10.7917 13.2256 10.7917 13.5666C10.7917 13.9076 11.0674 14.1833 11.4084 14.1833C11.7488 14.1833 12.0251 14.4596 12.0251 14.8V18.5C12.0251 18.8404 11.7488 19.1166 11.4084 19.1166C11.0674 19.1166 10.7917 19.3923 10.7917 19.7333C10.7917 20.0743 11.0674 20.35 11.4084 20.35C12.4284 20.35 13.2584 19.5199 13.2584 18.5V14.8C13.2584 13.78 12.4284 12.95 11.4084 12.95Z" fill="black"/>
<path d="M11.4084 30.2167C11.0674 30.2167 10.7917 30.4924 10.7917 30.8334C10.7917 31.1744 11.0674 31.4501 11.4084 31.4501C12.4284 31.4501 13.2584 30.62 13.2584 29.6V25.9C13.2584 24.8801 12.4284 24.05 11.4084 24.05C11.0674 24.05 10.7917 24.3257 10.7917 24.6667C10.7917 25.0077 11.0674 25.2834 11.4084 25.2834C11.7488 25.2834 12.0251 25.5596 12.0251 25.9V29.6C12.0251 29.9405 11.7488 30.2167 11.4084 30.2167Z" fill="black"/>
<path d="M18.8083 3.69995H17.5749C17.2339 3.69995 16.9583 3.9756 16.9583 4.31662C16.9583 4.65763 17.2339 4.93328 17.5749 4.93328H18.8083C19.1493 4.93328 19.4249 4.65763 19.4249 4.31662C19.4249 3.9756 19.1493 3.69995 18.8083 3.69995Z" fill="black"/>
</svg>
