<svg width="19" height="20" viewBox="0 0 28 40" fill="none" xmlns="http://www.w3.org/2000/svg">
<path d="M33.3061 15.2653H20.8163V0.693878C20.8163 0.310718 20.5057 0 20.1224 0H0.693878C0.310649 0 0 0.310718 0 0.693878V33.3061C0 33.6893 0.310649 34 0.693878 34H19.0816C19.4649 34 19.7755 33.6893 19.7755 33.3061V31.2245H28.102V33.3061C28.102 33.6893 28.4127 34 28.7959 34H31.2245C31.6077 34 31.9184 33.6893 31.9184 33.3061V31.2245H32.2653C32.6485 31.2245 32.9592 30.9138 32.9592 30.5306V19.0816H33.3061C33.6894 19.0816 34 18.7709 34 18.3878V15.9592C34 15.576 33.6894 15.2653 33.3061 15.2653ZM9.71429 32.6122H1.38776V26.7143H9.71429V32.6122ZM9.71429 25.3265H1.38776V1.38776H9.71429V25.3265ZM15.9592 32.6122H11.102V1.38776H19.4286V15.2653H14.2245C13.8413 15.2653 13.5306 15.576 13.5306 15.9592V18.3878C13.5306 18.7709 13.8413 19.0816 14.2245 19.0816H14.9184V30.5306C14.9184 30.9138 15.229 31.2245 15.6122 31.2245H15.9592V32.6122ZM18.3878 32.6122H17.3469V31.2245H18.3878V32.6122ZM30.5306 32.6122H29.4898V31.2245H30.5306V32.6122ZM31.5714 29.8367H16.3061V24.9796H31.5714V29.8367ZM31.5714 23.5918H16.3061V19.0816H31.5714V23.5918ZM32.6122 17.6939H14.9184V16.6531H32.6122V17.6939Z" fill="black"/>
<path d="M24.9796 20.4695H22.8979V21.8572H24.9796V20.4695Z" fill="black"/>
<path d="M24.9796 26.3674H22.8979V27.7552H24.9796V26.3674Z" fill="black"/>
<path d="M13.8775 11.1021H12.4897V13.8776H13.8775V11.1021Z" fill="black"/>
<path d="M8.32648 11.1021H6.93872V13.8776H8.32648V11.1021Z" fill="black"/>
<path d="M6.59189 28.7959H4.51025V30.1837H6.59189V28.7959Z" fill="black"/>
</svg>
