<svg width="39" height="39" viewBox="0 0 39 39" fill="none" xmlns="http://www.w3.org/2000/svg">
<path d="M32.6874 18.7771C31.5609 18.7771 30.5032 19.0751 29.5865 19.5944L27.9527 17.4254C30.0276 15.9089 32.1591 15.2131 32.343 15.155C32.5723 15.0821 32.7587 14.9135 32.8543 14.6938C32.9499 14.4734 32.9459 14.2222 32.8422 14.0058C30.0352 8.12774 25.6829 7.61963 25.4989 7.60092C25.1464 7.56606 24.8246 7.74841 24.6716 8.05714C24.5176 8.36668 24.5719 8.73869 24.8068 8.99227C25.323 9.54654 25.5369 10.1463 25.46 10.8261C25.4268 11.1221 25.3405 11.4237 25.2145 11.7252C20.4789 10.1765 17.4584 12.3829 16.3917 13.3876C13.7477 12.4563 11.3704 11.9857 9.28644 11.9857C6.07428 11.9857 4.72018 13.1217 4.57596 13.2515C4.34101 13.4628 4.24614 13.7903 4.33281 14.095C4.41957 14.3997 4.67155 14.6282 4.98268 14.685C8.03717 15.2385 10.1725 16.2817 11.6619 17.5168L9.73199 19.787C8.74593 19.1492 7.57259 18.7771 6.31329 18.7771C2.83211 18.7771 0 21.6092 0 25.0898C0 28.5709 2.83211 31.403 6.31337 31.403C9.79455 31.403 12.6267 28.5709 12.6267 25.0898C12.6267 23.4647 12.0091 21.9814 10.9965 20.8613L12.8466 18.6849C15.5361 21.8579 14.9876 25.6137 14.9492 25.853C14.9086 26.0936 14.9768 26.3392 15.1348 26.5256C15.2919 26.712 15.5237 26.8189 15.7677 26.8189H23.1887C23.431 26.8189 23.662 26.7127 23.8192 26.5288C23.9772 26.344 24.0461 26.1 24.0087 25.8603C23.497 22.5988 24.8894 20.188 26.6755 18.488L28.2617 20.5936C27.0975 21.7393 26.3741 23.3314 26.3741 25.0897C26.3741 28.5709 29.2062 31.403 32.6875 31.403C36.168 31.403 39 28.5709 39 25.0897C39 21.6092 36.1679 18.7771 32.6874 18.7771ZM24.3241 13.1876C23.5095 14.2316 22.4381 15.1574 21.7147 15.7019C20.4853 15.0766 19.2991 14.5299 18.1574 14.0615C19.242 13.2803 21.3095 12.327 24.3241 13.1876ZM10.9671 25.0898C10.9671 27.656 8.87972 29.7435 6.31329 29.7435C3.74702 29.7435 1.65949 27.656 1.65949 25.0898C1.65949 22.5242 3.74702 20.4367 6.31329 20.4367C7.16277 20.4367 7.95901 20.6665 8.64525 21.0655L5.68125 24.5524L6.94541 25.6269L9.90956 22.1399C10.5701 22.9434 10.9671 23.971 10.9671 25.0898ZM22.2624 25.1593H16.6565C16.7092 22.7211 16.0399 16.3284 7.99315 13.7247C8.37161 13.6752 8.80196 13.6453 9.28644 13.6453C11.5125 13.6453 15.4215 14.2984 21.4044 17.4084C21.6734 17.5487 21.9999 17.5317 22.2527 17.3581C22.4359 17.2342 26.7395 14.2788 27.1092 11.0141C27.1537 10.6242 27.1424 10.2458 27.0767 9.88194C28.199 10.4864 29.6754 11.6599 30.9315 13.9183C28.4527 14.9507 21.8209 18.3623 22.2624 25.1593ZM32.6874 29.7435C30.1211 29.7435 28.0337 27.656 28.0337 25.0898C28.0337 23.8729 28.5038 22.7641 29.2714 21.9341L32.0247 25.5889L33.3503 24.5906L30.5965 20.9348C31.2256 20.617 31.9357 20.4367 32.6875 20.4367C35.2531 20.4367 37.3404 22.5242 37.3404 25.0898C37.3404 27.656 35.253 29.7435 32.6874 29.7435Z" fill="black"/>
</svg>
