<svg width="20" height="20" viewBox="0 0 37 30" fill="none" xmlns="http://www.w3.org/2000/svg">
<g clip-path="url(#clip0_1905_7931)">
<path d="M8.99106 24.4249C8.84076 24.2748 8.60531 24.2748 8.44688 24.4168L7.42749 25.3224C7.31399 25.42 7.26507 25.5417 7.28943 25.688C7.3261 25.9032 7.35852 26.0089 7.44786 26.0982C7.533 26.1836 7.71186 26.2158 7.95143 26.4555C8.24804 26.752 8.31288 27.1012 8.06931 27.3448L8.06113 27.3529C7.80937 27.6047 7.47222 27.552 7.20841 27.2879C7.00938 27.0889 6.89975 26.8656 6.85115 26.5651C6.83871 26.4798 6.81054 26.4107 6.73739 26.3377C6.57484 26.1752 6.30265 26.1793 6.14049 26.3418C6.03491 26.4473 6.00629 26.5814 6.0266 26.7074C6.0915 27.0971 6.25798 27.4748 6.65212 27.8687C7.27725 28.4942 8.09374 28.5469 8.69471 27.946L8.70289 27.9378C9.34452 27.2962 9.17804 26.5936 8.61743 26.0332C8.45926 25.8748 8.33731 25.7936 8.195 25.7083L8.71907 25.2494L9.67755 26.2079C9.82786 26.3582 10.0754 26.3622 10.2258 26.212C10.3762 26.0617 10.3762 25.8099 10.2258 25.6597L8.99106 24.4249Z" fill="black"/>
<path d="M7.64271 22.9954L7.63465 22.9872C7.54938 22.902 7.43968 22.8329 7.28951 22.7476L6.76969 22.4634C6.60727 22.374 6.42048 22.3983 6.29454 22.5243C6.14823 22.6704 6.15249 22.9181 6.29873 23.0644C6.33115 23.0968 6.38387 23.1335 6.42461 23.1578L6.70066 23.3203L4.73535 25.2857C4.56449 25.4563 4.56449 25.7324 4.73516 25.9031C4.90583 26.0736 5.18201 26.0735 5.35243 25.903L7.64284 23.6126C7.81332 23.4422 7.81332 23.1659 7.64271 22.9954Z" fill="black"/>
<path d="M32.1831 5.31175L32.2357 5.25909C32.6859 4.80934 33.0141 3.99039 32.9996 3.35443L32.9575 1.49135C32.9401 0.720423 32.2986 0.0789845 31.5276 0.0615177L29.6649 0.0194941C29.6514 0.0192363 29.6375 0.019043 29.6237 0.019043C28.9972 0.019043 28.1959 0.347497 27.7599 0.783201L18.2915 10.2518C17.6939 10.0779 17.0757 9.9899 16.4493 9.9899C14.6919 9.9899 13.0396 10.6743 11.7968 11.9169C9.35914 14.355 9.23977 18.2447 11.4352 20.8271L10.8261 21.4362L7.76147 18.3717C7.66106 18.2712 7.525 18.2149 7.38301 18.2149C7.24108 18.2149 7.10502 18.2713 7.00454 18.3717L0.156766 25.2194C-0.0522555 25.4284 -0.0522555 25.7672 0.156766 25.9762L7.00434 32.824C7.10476 32.9244 7.24082 32.9808 7.38281 32.9808C7.52474 32.9808 7.6608 32.9244 7.76128 32.824L14.6092 25.9762C14.7095 25.8758 14.7659 25.7397 14.7659 25.5978C14.7659 25.4558 14.7095 25.3197 14.6092 25.2194L11.5829 22.1931L12.1917 21.5842C13.3798 22.5962 14.8718 23.1493 16.4496 23.1493C18.2071 23.1493 19.8594 22.4649 21.1023 21.2221C21.9933 20.3309 22.6065 19.2121 22.8756 17.9863C23.113 16.9048 23.0749 15.7852 22.7672 14.7275L23.0501 14.4446L23.6193 14.5873C23.9978 14.6821 24.3651 14.5701 24.5746 14.3017C24.7452 14.0831 24.7969 13.7938 24.72 13.4866L24.7135 13.4612L25.1256 13.5644C25.2384 13.5926 25.3499 13.607 25.4572 13.607C25.7852 13.607 26.0681 13.4759 26.2538 13.238C26.4531 12.9827 26.512 12.6391 26.4197 12.2705L26.1804 11.3145L27.0612 10.4337L27.6302 10.5763C28.0091 10.6711 28.3765 10.5591 28.5861 10.2904C28.7482 10.0824 28.8027 9.8102 28.7413 9.52022C29.1039 9.59686 29.4509 9.48233 29.6522 9.22432C29.8145 9.01633 29.8689 8.74414 29.8076 8.45397C30.1705 8.53048 30.5172 8.41608 30.7186 8.15813C30.8891 7.93957 30.9406 7.65011 30.8637 7.34319L30.8219 7.17651L31.0459 7.23259C31.1586 7.26075 31.2702 7.27512 31.3774 7.27512C31.3775 7.27512 31.3775 7.27512 31.3775 7.27512C31.7056 7.27512 31.9885 7.14409 32.1742 6.90613C32.3735 6.6509 32.4324 6.30723 32.3401 5.9383L32.1831 5.31175ZM13.4738 25.5976L7.38281 31.6886L1.29198 25.5977L7.38288 19.5067L10.0691 22.193L10.0173 22.2447C9.80832 22.4537 9.80832 22.7926 10.0174 23.0015C10.1219 23.1061 10.2588 23.1583 10.3958 23.1583C10.5328 23.1583 10.6697 23.1061 10.7743 23.0015L10.826 22.9498L13.4738 25.5976ZM31.479 4.50209L31.2118 4.76931C31.0789 4.90234 31.0254 5.09545 31.0712 5.27785L31.3005 6.19276L30.3854 5.96357C30.2031 5.918 30.01 5.97117 29.877 6.1042L29.7438 6.23736C29.5906 6.3905 29.5449 6.62092 29.6279 6.82099C29.6307 6.82776 29.6326 6.83298 29.6334 6.83607L29.7594 7.33919L29.2553 7.21286C29.2506 7.2117 29.2462 7.21022 29.2419 7.20874C29.0483 7.14274 28.834 7.19282 28.6897 7.33797C28.5454 7.48305 28.4965 7.69768 28.5636 7.89091C28.5648 7.89401 28.5658 7.89729 28.567 7.90232L28.693 8.40544L28.1884 8.27898C28.1837 8.27776 28.1792 8.27628 28.1749 8.27486C27.9808 8.20892 27.7676 8.26435 27.6236 8.41002C27.4796 8.55575 27.4326 8.77553 27.5006 8.96876L27.6266 9.47188L27.1232 9.34575C27.1205 9.34504 27.1164 9.34362 27.1111 9.3413C26.9104 9.25687 26.6788 9.30237 26.525 9.45609L25.2092 10.7719C25.0763 10.9049 25.0229 11.0978 25.0685 11.2802L25.38 12.5246L24.1357 12.213C23.9534 12.1674 23.7604 12.2205 23.6275 12.3535L23.6001 12.3808C23.4458 12.5348 23.4004 12.7671 23.4854 12.9679C23.4873 12.9725 23.4885 12.9759 23.4895 12.9798L23.6156 13.4828L23.1134 13.357C23.1108 13.3564 23.1067 13.3551 23.0989 13.3518C22.8984 13.2679 22.6674 13.3134 22.5138 13.4671L21.7801 14.2009C21.635 14.346 21.5856 14.5612 21.653 14.7551C22.343 16.7394 21.8297 18.9807 20.3455 20.465C19.3048 21.5056 17.9212 22.0786 16.4496 22.0786C15.1578 22.0786 13.9341 21.6369 12.9505 20.8251L13.6341 20.1415C13.8143 20.2196 14.01 20.2615 14.2123 20.2615C14.6009 20.2615 14.9663 20.1101 15.2414 19.8353C15.8086 19.2679 15.8086 18.3449 15.2413 17.7774C14.9664 17.5026 14.6011 17.3512 14.2125 17.3512C13.8238 17.3512 13.4584 17.5026 13.1837 17.7774C12.9086 18.0523 12.7572 18.4177 12.7572 18.8065C12.7572 19.0088 12.7991 19.2044 12.8773 19.3847L12.1942 20.0678C10.414 17.9058 10.5336 14.6939 12.5538 12.6734C13.5944 11.6329 14.9779 11.0599 16.4495 11.0599C17.0699 11.0599 17.6804 11.1628 18.264 11.3658C18.4578 11.4332 18.6731 11.3838 18.8183 11.2387L28.5169 1.54008C28.753 1.30411 29.2806 1.08929 29.6239 1.08929L31.5037 1.13151C31.7038 1.13602 31.8832 1.31552 31.8877 1.51545L31.9298 3.37867C31.9374 3.72317 31.7227 4.25852 31.479 4.50209ZM13.8276 18.8068C13.8276 18.7041 13.8676 18.6075 13.9404 18.5347C14.0131 18.4621 14.1096 18.4221 14.2123 18.4221C14.3151 18.4221 14.4118 18.4621 14.4844 18.5347C14.6344 18.6847 14.6344 18.9289 14.4845 19.0787C14.4118 19.1515 14.3151 19.1915 14.2123 19.1915C14.1096 19.1915 14.013 19.1515 13.9402 19.0787C13.8675 19.006 13.8276 18.9095 13.8276 18.8068Z" fill="black"/>
<path d="M20.3443 11.9183L21.1038 12.6726L30.5841 3.1277L29.8247 2.37341L20.3443 11.9183Z" fill="black"/>
</g>
<defs>
<clipPath id="clip0_1905_7931">
<rect width="40" height="40" fill="white"/>
</clipPath>
</defs>
</svg>
