<svg width="32" height="32" viewBox="0 0 32 32" fill="none" xmlns="http://www.w3.org/2000/svg">
<path d="M16 32C24.8366 32 32 24.8366 32 16C32 7.16344 24.8366 0 16 0C7.16344 0 0 7.16344 0 16C0 24.8366 7.16344 32 16 32Z" fill="#56447F" fill-opacity="0.2"/>
<path d="M17.3261 6.08412C14.0541 5.67012 10.9001 6.79612 8.66812 9.19812C6.44012 11.6001 5.54612 14.8481 6.21612 18.1121C6.99412 21.8921 9.91812 24.8841 13.6661 25.7361C14.4501 25.9161 15.2341 26.0041 16.0081 26.0041C17.5461 26.0041 19.0461 25.6541 20.4341 24.9661C20.9281 24.7201 21.1301 24.1201 20.8861 23.6241C20.6381 23.1281 20.0421 22.9301 19.5441 23.1721C17.8741 24.0021 15.9941 24.2141 14.1101 23.7861C11.1701 23.1181 8.78612 20.6741 8.17612 17.7101C7.63612 15.0861 8.35212 12.4801 10.1341 10.5581C11.9181 8.63812 14.4441 7.73212 17.0701 8.06812C21.0221 8.58012 24.0001 12.1681 24.0001 16.4181V17.0001C24.0001 18.1041 23.1041 19.0001 22.0001 19.0001C20.8961 19.0001 20.0001 18.1041 20.0001 17.0001V13.0001C20.0001 12.4481 19.5521 12.0001 19.0001 12.0001C18.5901 12.0001 18.2401 12.2481 18.0861 12.6001C17.4901 12.2241 16.7901 12.0001 16.0001 12.0001C13.6441 12.0001 12.0001 13.8501 12.0001 16.5001C12.0001 19.1501 13.6441 21.0001 16.0001 21.0001C17.2421 21.0001 18.2761 20.4761 18.9861 19.6001C19.7201 20.4501 20.7921 21.0001 22.0001 21.0001C24.2061 21.0001 26.0001 19.2061 26.0001 17.0001V16.4181C26.0001 11.1661 22.2721 6.72412 17.3261 6.08412ZM16.0001 19.0001C14.7661 19.0001 14.0001 18.0421 14.0001 16.5001C14.0001 14.9581 14.7661 14.0001 16.0001 14.0001C17.2341 14.0001 18.0001 14.9581 18.0001 16.5001C18.0001 18.0421 17.2341 19.0001 16.0001 19.0001Z" fill="#FAFAFA"/>
</svg>
