<svg width="16" height="16" viewBox="0 0 16 16" fill="none" xmlns="http://www.w3.org/2000/svg">
<path d="M7.95939 15.9188C12.3552 15.9188 15.9188 12.3552 15.9188 7.95939C15.9188 3.56354 12.3552 0 7.95939 0C3.56354 0 0 3.56354 0 7.95939C0 12.3552 3.56354 15.9188 7.95939 15.9188Z" fill="white"/>
<path d="M7.95954 14.2946C11.4583 14.2946 14.2946 11.4583 14.2946 7.95954C14.2946 4.4608 11.4583 1.62451 7.95954 1.62451C4.4608 1.62451 1.62451 4.4608 1.62451 7.95954C1.62451 11.4583 4.4608 14.2946 7.95954 14.2946Z" fill="black" fill-opacity="0.25"/>
<path d="M7.95919 12.4262C10.4262 12.4262 12.4262 10.4263 12.4262 7.95919C12.4262 5.49213 10.4262 3.49219 7.95919 3.49219C5.49213 3.49219 3.49219 5.49213 3.49219 7.95919C3.49219 10.4263 5.49213 12.4262 7.95919 12.4262Z" fill="white"/>
<path d="M7.9595 10.396C9.30517 10.396 10.396 9.30517 10.396 7.9595C10.396 6.61383 9.30517 5.52295 7.9595 5.52295C6.61383 5.52295 5.52295 6.61383 5.52295 7.9595C5.52295 9.30517 6.61383 10.396 7.9595 10.396Z" fill="black" fill-opacity="0.25"/>
<path d="M12.9952 6.90381H9.34033V8.93426H12.9952V6.90381Z" fill="#BFBFBF"/>
</svg>
